<svg width="800" height="800" viewBox="0 0 800 800" fill="none" xmlns="http://www.w3.org/2000/svg">
<g clip-path="url(#clip0_1_2)">
<rect width="800" height="800" rx="58" fill="#00509A"/>
<path fill-rule="evenodd" clip-rule="evenodd" d="M1177.23 316.013C1186.51 323.039 1192.21 361.796 1192.21 361.796C1192.21 361.796 1143.64 362.695 1117.22 362.695H1094.38L1066.65 514.274H1024.24C1024.24 514.274 1050.63 349.546 1056.86 319.681C1058.88 310.011 1070.7 311.671 1090.64 311.671H1122.5C1143.07 311.671 1167.12 308.372 1177.23 316.013ZM979.786 389.836C979.786 389.836 981.108 380.107 975.302 368.839C970.341 359.234 965.76 356.999 952.709 356.486C915.86 355.033 916.576 389.323 916.576 389.323L979.786 389.836ZM1019.75 350.566C1025.15 375.027 1014.86 432.503 1014.86 432.503C1014.86 432.503 961.107 431.377 931.665 432.503C922.511 432.854 911.554 431.253 908.828 436.601C904.994 444.095 910.23 455.631 914.667 460.505C919.774 466.115 929.721 466.755 933.297 467.324C957.193 471.136 1007.21 468.309 1007.21 468.309L998.542 516.482C998.542 516.482 927.867 520.934 892.516 510.338C885.536 508.251 878.992 504.032 874.571 498.05C873.365 496.414 872.318 494.182 871.177 492.254C870.266 490.715 867.608 485.659 866.415 481.661C858.341 454.644 867.361 402.885 876.203 375.148C877.229 371.935 878.518 367.857 879.875 364.393C881.57 360.074 883.005 355.198 884.359 352.615C885.27 350.835 886.4 349.688 887.346 348.007C888.438 346.02 889.708 344.095 890.884 342.376C894.147 337.624 897.85 334.263 902.304 330.088C917.032 316.237 943.686 305.485 975.708 309.601C987.764 311.158 1005.97 316.565 1014.86 332.134C1017.24 336.291 1018.41 344.543 1019.75 350.566ZM825.228 311.482L866.352 311.178C866.352 311.178 843.433 447.701 831.752 514.274L1479.98 201C1446.91 201 1405.44 391.52 1392.92 361.796C1380.76 332.936 1111.77 318.58 1117.22 286.335C1121.07 263.516 1151.13 283.917 1151.13 283.917L1347.94 275.803C1347.94 275.803 1378.12 313.822 1373.11 350.079C1371.32 363.066 1344.08 365.546 1347.94 375.148C1351.61 384.288 1464.32 309.15 1479.98 309.601C2053.26 187.749 1283.99 401.954 1283.99 401.954L825.228 311.482ZM632.743 409.804C637.049 390.594 643.329 369.762 642.531 352.45C641.667 333.935 629.304 317.078 621.326 313.534C597.298 302.882 574.804 317.773 565.864 329.92C554.298 345.652 550.382 364.028 546.288 389.326C543.24 408.106 540.742 427.933 546.288 442.58C556.106 468.474 586.726 462.819 619.694 463.067C624.587 446.598 628.632 428.101 632.743 409.804ZM689.837 334.018C694.533 376.908 676.511 424.251 664.096 465.419C676.755 466.855 687.848 465.198 688.647 466.383C689.478 467.919 680.162 515.524 676.915 515.648C666.869 515.975 633.577 516.323 619.694 516.323C574.393 516.323 532.016 520.029 510.404 491.744C501.628 480.252 495.559 460.543 494.089 446.678C491.643 423.531 494.709 398.047 498.984 377.035C502.851 358.064 507.807 340.162 515.297 323.773C534.333 282.05 567.446 251.079 622.955 258.229C633.722 259.62 649.185 265.54 658.844 272.566C659.511 273.058 661.847 275.393 662.382 275.803C675.433 286.231 687.325 311.116 689.837 334.018ZM489.408 311.73C486.668 327.399 483.928 345.162 481.04 360.646H435.366C438.904 343.482 441.613 326.418 445.154 311.485C459.769 311.485 473.358 311.73 489.41 311.73M433.734 374.986H477.779C472.02 415.011 460.617 479.574 451.678 524.516C446.084 552.642 442.348 573.164 427.21 588.015C425.855 589.347 425.073 588.713 423.946 590.064C421.157 593.404 408.253 597.278 401.111 598.257C389.497 599.837 376.366 598.463 362.091 598.094C365.826 580.951 370.052 560.363 373.382 544.997C408.176 550.286 409.056 508.988 415.792 469.211C419.69 446.227 431.501 384.202 433.734 374.986Z" fill="white"/>
<path fill-rule="evenodd" clip-rule="evenodd" d="M330.966 479.453L330.022 482.525C313.94 521.854 285.44 545.982 244.79 547.046C225.787 547.539 207.681 541.415 195.853 534.758C170.327 520.356 148.857 493.648 137.132 465.113C120.312 424.206 117.279 367.303 152.252 324.802C152.792 324.802 148.009 334.018 148.549 334.018L147.586 337.951C122.385 437.028 200.029 521.936 275.506 512.225C293.646 509.89 316.776 497.416 330.966 479.453Z" fill="#83C3FF"/>
<path fill-rule="evenodd" clip-rule="evenodd" d="M285.292 438.485C304.281 438.647 324.115 427.503 335.861 411.856C325.585 444.611 295.831 465.664 255.933 458.969C222.524 453.355 190.699 411.14 187.422 368.839C185.025 338.054 193.568 319.681 207.648 297.392C202.755 309.05 200.926 318.039 200.471 323.773C195.122 390.367 242.834 438.134 285.292 438.485Z" fill="#83C3FF"/>
<path fill-rule="evenodd" clip-rule="evenodd" d="M333.953 355.77C331.001 364.272 314.006 380.328 306.5 382.336C276.779 390.287 257.745 372.589 247.774 352.45C246.293 349.443 243.553 341.229 243.062 339.139C239.195 322.629 240.973 297.658 252.507 284.733C249.033 297.024 248.526 311.299 250.354 320.58C251.463 326.19 254.839 335.987 258.217 342.149C264.364 353.373 268.263 356.1 276.159 362.061C279.716 364.744 283.531 366.896 285.179 367.486C292.667 370.254 308.472 377.545 333.953 355.77Z" fill="#83C3FF"/>
</g>
<defs>
<clipPath id="clip0_1_2">
<rect width="800" height="800" rx="58" fill="white"/>
</clipPath>
</defs>
</svg>
